# xmcd
#
# Track frame offsets:
#	150
#	18030
#	32935
#	49215
#	75617
#	97695
#	115167
#	143050
#	169532
#	196655
#
# Disc length: 2895 seconds
#
# Revision: 2
# Processed by: cddbd v1.4b42PL1 Copyright (c) Steve Scherf et al.
# Submitted via: EZCDDA 4.3.2
#
DISCID=6d0b4d0a
DTITLE=Big Mike Griffin - Harley In The Rain
DYEAR=1900
DGENRE=
TTITLE0=Harley In The Rain
TTITLE1=Figure Of Speech
TTITLE2=Self Defense
TTITLE3=Willin'
TTITLE4=Shovel Head
TTITLE5=Harley Blues
TTITLE6=You'll Know
TTITLE7=Ain't Superstitious
TTITLE8=Get Outta My Live
TTITLE9=Old Maid
EXTD=
EXTT0=
EXTT1=
EXTT2=
EXTT3=
EXTT4=
EXTT5=
EXTT6=
EXTT7=
EXTT8=
EXTT9=
PLAYORDER=
